
<svg viewBox="0 0 101 24" xmlns="http://www.w3.org/2000/svg">
<g clip-path="url(#clip0_60_255)">
<path d="M10.1733 12.0357C10.3048 11.8084 10.5508 11.6553 10.8326 11.6553C11.2533 11.6553 11.5952 11.9962 11.5952 12.4179V12.4301C11.7427 13.9573 13.0284 15.151 14.5931 15.151C16.2564 15.151 17.6041 13.8032 17.6041 12.1399C17.4586 9.2773 15.0852 7.06739 12.186 7.06739C10.3414 7.06739 8.7119 7.98967 7.73327 9.39751C6.83353 10.6748 6.32261 12.2611 6.32261 13.9432C6.32261 18.2785 9.83705 21.7929 14.1723 21.7929C15.4496 21.7929 16.6565 21.4877 17.7225 20.9458C21.3571 19.1482 23.8572 15.4121 23.8572 11.0824C23.8572 6.09063 20.5344 1.87368 15.9793 0.525006C14.8589 0.197229 13.6511 0 12.4245 0C6.73303 0 1.92533 3.78305 0.379432 8.97206C0.132425 9.93754 0 10.9481 0 11.9906C0 18.0559 4.44142 23.0834 10.2484 24C10.3142 24 10.3799 23.9483 10.3799 23.8826C10.3799 23.8291 10.3452 23.7849 10.2973 23.769C5.45386 22.5255 1.84081 18.0963 1.84081 12.8838C1.84081 9.73562 3.1444 6.89082 5.24067 4.86123C6.87767 3.22423 9.10636 2.14698 11.6046 2.14698C16.6001 2.14698 20.6499 6.19676 20.6499 11.1923C20.6499 15.0721 17.4698 18.2184 13.59 18.2184C11.3726 18.2184 9.57502 16.3653 9.57502 14.1479C9.57502 13.3759 9.79291 12.6546 10.1705 12.0423L10.1733 12.0357Z" fill="#FBBD05"/>
<path d="M38.4354 9.34801C38.3672 8.7429 38.0859 8.27415 37.5916 7.94176C37.0973 7.60511 36.4751 7.43679 35.7251 7.43679C35.1882 7.43679 34.7237 7.52202 34.3317 7.69247C33.9396 7.85866 33.6349 8.08878 33.4176 8.38281C33.2045 8.67258 33.098 9.00284 33.098 9.37358C33.098 9.68466 33.1704 9.95312 33.3153 10.179C33.4645 10.4048 33.6584 10.5945 33.897 10.7479C34.1399 10.897 34.3999 11.0227 34.6768 11.125C34.9538 11.223 35.2202 11.304 35.4758 11.3679L36.7543 11.7003C37.1719 11.8026 37.6001 11.9411 38.0391 12.1158C38.478 12.2905 38.8849 12.5206 39.2599 12.8061C39.6349 13.0916 39.9375 13.4453 40.1676 13.8672C40.402 14.2891 40.5192 14.794 40.5192 15.3821C40.5192 16.1236 40.3274 16.782 39.9439 17.3572C39.5646 17.9325 39.0128 18.3864 38.2883 18.7188C37.5682 19.0511 36.6967 19.2173 35.674 19.2173C34.6939 19.2173 33.8459 19.0618 33.13 18.7507C32.4141 18.4396 31.8537 17.9986 31.4489 17.4276C31.044 16.8523 30.8203 16.1705 30.7777 15.3821H32.7592C32.7976 15.8551 32.951 16.2493 33.2195 16.5646C33.4922 16.8757 33.8395 17.108 34.2614 17.2614C34.6875 17.4105 35.1541 17.4851 35.6612 17.4851C36.2195 17.4851 36.7159 17.3977 37.1506 17.223C37.5895 17.044 37.9347 16.7969 38.1861 16.4815C38.4375 16.1619 38.5632 15.7891 38.5632 15.3629C38.5632 14.9751 38.4524 14.6577 38.2308 14.4105C38.0135 14.1634 37.7173 13.9588 37.3423 13.7969C36.9716 13.6349 36.5518 13.4922 36.0831 13.3686L34.5362 12.9467C33.4879 12.6612 32.657 12.2415 32.0433 11.6875C31.4339 11.1335 31.1293 10.4006 31.1293 9.48864C31.1293 8.73437 31.3338 8.07599 31.7429 7.51349C32.152 6.95099 32.706 6.5142 33.4048 6.20312C34.1037 5.88778 34.892 5.73011 35.7699 5.73011C36.6562 5.73011 37.4382 5.88565 38.1158 6.19673C38.7976 6.50781 39.3345 6.93608 39.7266 7.48153C40.1186 8.02273 40.3231 8.64489 40.3402 9.34801H38.4354ZM48.9455 14.9283V9.18182H50.8631V19H48.9838V17.2997H48.8816C48.6557 17.8239 48.2935 18.2607 47.7949 18.6101C47.3006 18.9553 46.6848 19.1278 45.9476 19.1278C45.3169 19.1278 44.7587 18.9893 44.2729 18.7124C43.7914 18.4311 43.4121 18.0156 43.1351 17.4659C42.8624 16.9162 42.726 16.2365 42.726 15.4268V9.18182H44.6372V15.1967C44.6372 15.8658 44.8226 16.3984 45.1934 16.7947C45.5641 17.1911 46.0456 17.3892 46.638 17.3892C46.9959 17.3892 47.3517 17.2997 47.7054 17.1207C48.0634 16.9418 48.3595 16.6712 48.5939 16.3089C48.8326 15.9467 48.9497 15.4865 48.9455 14.9283ZM55.3423 13.1705V19H53.4311V9.18182H55.2656V10.7798H55.3871C55.6129 10.2599 55.9666 9.84233 56.4481 9.52699C56.9339 9.21165 57.5454 9.05398 58.2827 9.05398C58.9517 9.05398 59.5376 9.1946 60.0405 9.47585C60.5433 9.75284 60.9332 10.1662 61.2102 10.7159C61.4872 11.2656 61.6257 11.9453 61.6257 12.755V19H59.7145V12.9851C59.7145 12.2734 59.5291 11.7173 59.1584 11.3168C58.7876 10.9119 58.2784 10.7095 57.6307 10.7095C57.1875 10.7095 56.7933 10.8054 56.4481 10.9972C56.1072 11.1889 55.8366 11.4702 55.6364 11.8409C55.4403 12.2074 55.3423 12.6506 55.3423 13.1705ZM66.1001 5.90909V19H64.1889V5.90909H66.1001ZM68.6713 19V9.18182H70.5826V19H68.6713ZM69.6365 7.6669C69.3041 7.6669 69.0186 7.55611 68.78 7.33452C68.5456 7.10866 68.4284 6.8402 68.4284 6.52912C68.4284 6.21378 68.5456 5.94531 68.78 5.72372C69.0186 5.49787 69.3041 5.38494 69.6365 5.38494C69.9689 5.38494 70.2523 5.49787 70.4867 5.72372C70.7253 5.94531 70.8446 6.21378 70.8446 6.52912C70.8446 6.8402 70.7253 7.10866 70.4867 7.33452C70.2523 7.55611 69.9689 7.6669 69.6365 7.6669ZM77.2702 22.8864C76.4904 22.8864 75.8192 22.7841 75.2567 22.5795C74.6985 22.375 74.2425 22.1044 73.8888 21.7678C73.5352 21.4311 73.2709 21.0625 73.0962 20.6619L74.739 19.9844C74.854 20.1719 75.0075 20.37 75.1992 20.5788C75.3952 20.7919 75.6594 20.973 75.9918 21.1222C76.3285 21.2713 76.761 21.3459 77.2894 21.3459C78.0138 21.3459 78.6126 21.169 79.0856 20.8153C79.5586 20.4659 79.7951 19.9077 79.7951 19.1406V17.2102H79.6736C79.5586 17.419 79.3924 17.6513 79.1751 17.907C78.962 18.1626 78.668 18.3842 78.293 18.5717C77.918 18.7592 77.43 18.853 76.8292 18.853C76.0536 18.853 75.3548 18.6719 74.7326 18.3097C74.1147 17.9432 73.6246 17.4041 73.2624 16.6925C72.9045 15.9766 72.7255 15.0966 72.7255 14.0526C72.7255 13.0085 72.9023 12.1136 73.256 11.3679C73.614 10.6222 74.104 10.0511 74.7262 9.65483C75.3484 9.25426 76.0536 9.05398 76.842 9.05398C77.4513 9.05398 77.9435 9.15625 78.3185 9.3608C78.6935 9.56108 78.9854 9.79545 79.1942 10.0639C79.4073 10.3324 79.5714 10.5689 79.6864 10.7734H79.8271V9.18182H81.6999V19.2173C81.6999 20.0611 81.5039 20.7536 81.1119 21.2947C80.7198 21.8359 80.1893 22.2365 79.5202 22.4964C78.8555 22.7564 78.1055 22.8864 77.2702 22.8864ZM77.2511 17.2678C77.8008 17.2678 78.2653 17.1399 78.6445 16.8842C79.028 16.6243 79.3178 16.2536 79.5138 15.772C79.7141 15.2862 79.8143 14.7045 79.8143 14.027C79.8143 13.3665 79.7163 12.7848 79.5202 12.282C79.3242 11.7791 79.0366 11.3871 78.6573 11.1058C78.278 10.8203 77.8093 10.6776 77.2511 10.6776C76.6758 10.6776 76.1964 10.8267 75.8128 11.125C75.4293 11.419 75.1396 11.8196 74.9435 12.3267C74.7518 12.8338 74.6559 13.4006 74.6559 14.027C74.6559 14.6705 74.7539 15.2351 74.9499 15.7209C75.1459 16.2067 75.4357 16.5859 75.8192 16.8587C76.207 17.1314 76.6843 17.2678 77.2511 17.2678ZM86.1744 13.1705V19H84.2631V5.90909H86.1488V10.7798H86.2702C86.5003 10.2514 86.8519 9.83168 87.3249 9.5206C87.7979 9.20952 88.4158 9.05398 89.1786 9.05398C89.8519 9.05398 90.44 9.19247 90.9428 9.46946C91.4499 9.74645 91.842 10.1598 92.119 10.7095C92.4002 11.255 92.5408 11.9368 92.5408 12.755V19H90.6296V12.9851C90.6296 12.2649 90.4442 11.7067 90.0735 11.3104C89.7028 10.9098 89.1871 10.7095 88.5266 10.7095C88.0749 10.7095 87.6701 10.8054 87.3121 10.9972C86.9584 11.1889 86.6793 11.4702 86.4748 11.8409C86.2745 12.2074 86.1744 12.6506 86.1744 13.1705ZM99.6744 9.18182V10.7159H94.3114V9.18182H99.6744ZM95.7496 6.82955H97.6609V16.1172C97.6609 16.4879 97.7163 16.767 97.8271 16.9545C97.9378 17.1378 98.0806 17.2635 98.2553 17.3317C98.4343 17.3956 98.6282 17.4276 98.837 17.4276C98.9904 17.4276 99.1246 17.4169 99.2397 17.3956C99.3548 17.3743 99.4442 17.3572 99.5082 17.3445L99.8533 18.9233C99.7425 18.9659 99.5849 19.0085 99.3803 19.0511C99.1758 19.098 98.9201 19.1236 98.6133 19.1278C98.1104 19.1364 97.6417 19.0469 97.207 18.8594C96.7724 18.6719 96.4208 18.3821 96.1523 17.9901C95.8839 17.598 95.7496 17.1058 95.7496 16.5135V6.82955Z" fill="#FBBD05"/>
</g>
<defs>
<clipPath id="clip0_60_255">
<rect width="100.857" height="24" fill="white"/>
</clipPath>
</defs>
</svg>
