<svg xmlns="http://www.w3.org/2000/svg" fill="none" viewBox="0 0 256 256">
  <path class="cls-1" d="m110.34,128.36c1.33-2.29,3.8-3.82,6.64-3.82,4.23,0,7.67,3.43,7.67,7.67v.13c1.48,15.36,14.42,27.37,30.16,27.37,16.73,0,30.29-13.56,30.29-30.29-1.46-28.8-25.34-51.03-54.5-51.03-18.56,0-34.95,9.27-44.79,23.44-9.06,12.85-14.19,28.81-14.19,45.72,0,43.61,35.35,78.96,78.96,78.96,12.85,0,24.99-3.07,35.71-8.52,36.57-18.08,61.71-55.67,61.71-99.22,0-50.22-33.43-92.63-79.25-106.2-11.27-3.3-23.43-5.28-35.77-5.28C75.73,7.28,27.37,45.34,11.82,97.54c-2.48,9.71-3.82,19.88-3.82,30.37,0,61.01,44.67,111.59,103.1,120.81.66,0,1.32-.52,1.32-1.18,0-.53-.35-.99-.83-1.14-48.72-12.51-85.07-57.06-85.07-109.5,0-31.67,13.11-60.28,34.2-80.7,16.47-16.47,38.89-27.31,64.02-27.31,50.25,0,90.99,40.74,90.99,90.99,0,39.03-31.99,70.67-71.02,70.67-22.3,0-40.39-18.64-40.39-40.95,0-7.77,2.19-15.02,5.99-21.18l.02-.06Z"/>
  <style>
    path { fill: #fff; }
  </style>
</svg>
