<svg xmlns="http://www.w3.org/2000/svg" fill="none" viewBox="0 0 256 256">
  <path d="m109.31,128.38c1.4-2.42,4.02-4.05,7.02-4.05,4.48,0,8.12,3.63,8.12,8.12v.13c1.57,16.26,15.26,28.97,31.92,28.97,17.71,0,32.06-14.35,32.06-32.06-1.55-30.48-26.82-54.01-57.69-54.01-19.64,0-36.99,9.82-47.41,24.81-9.58,13.6-15.02,30.49-15.02,48.4,0,46.16,37.42,83.58,83.58,83.58,13.6,0,26.45-3.25,37.8-9.02,38.7-19.14,65.32-58.92,65.32-105.02,0-53.15-35.38-98.05-83.88-112.41C159.2,2.33,146.34.23,133.28.23,72.68.23,21.49,40.51,5.03,95.76c-2.63,10.28-4.04,21.04-4.04,32.14,0,64.58,47.29,118.11,109.12,127.87.7,0,1.4-.55,1.4-1.25,0-.57-.37-1.04-.88-1.21-51.57-13.24-90.04-60.4-90.04-115.9,0-33.52,13.88-63.81,36.2-85.42,17.43-17.43,41.16-28.9,67.76-28.9,53.19,0,96.31,43.12,96.31,96.31,0,41.31-33.86,74.81-75.17,74.81-23.61,0-42.75-19.73-42.75-43.34,0-8.22,2.32-15.9,6.34-22.42l.03-.07Z"/>
  <style>
    path { fill: #fbbd05; }
  </style>
</svg>
