<svg width="52" height="40" viewBox="0 0 52 40" fill="none" xmlns="http://www.w3.org/2000/svg">
<path id="Vector" d="M22.6965 2.85209L20.8415 0C8.00706 8.627 0.876831 19.109 0.876831 27.736C0.876831 36.0778 7.00997 40 12.2145 40C18.7743 40 23.4083 34.4373 23.4083 28.5916C23.4083 23.6724 20.271 19.4649 16.0636 17.8952C14.8521 17.4662 13.7112 17.1103 13.7112 15.0431C13.7112 12.4055 15.637 8.48554 22.6965 2.85209ZM51.0029 2.85209L49.1479 0C36.455 8.627 29.1833 19.109 29.1833 27.736C29.1833 36.0778 35.4579 40 40.6624 40C47.2929 40 52 34.4373 52 28.5916C52 23.6724 48.792 19.4649 44.4408 17.8952C43.2292 17.4662 42.1591 17.1103 42.1591 15.0431C42.1591 12.4055 44.1556 8.48326 51.0006 2.84981L51.0029 2.85209Z" fill="#1F1F1F"/>
</svg>
