<svg width="64" height="64" viewBox="0 0 64 64" fill="none" xmlns="http://www.w3.org/2000/svg">
<g id="Frame" clip-path="url(#clip0_140_24)">
<g id="Mask group">
<mask id="mask0_140_24" style="mask-type:alpha" maskUnits="userSpaceOnUse" x="0" y="0" width="64" height="64">
<g id="Group">
<path id="Vector" d="M32 64C49.6731 64 64 49.6731 64 32C64 14.3269 49.6731 0 32 0C14.3269 0 0 14.3269 0 32C0 49.6731 14.3269 64 32 64Z" fill="white"/>
</g>
</mask>
<g mask="url(#mask0_140_24)">
<g id="Group_2">
<path id="Vector_2" d="M32 64C49.6731 64 64 49.6731 64 32C64 14.3269 49.6731 0 32 0C14.3269 0 0 14.3269 0 32C0 49.6731 14.3269 64 32 64Z" fill="white"/>
<path id="Vector_3" d="M53.1586 56.0071L24.584 19.2H19.2002V44.7893H23.5073V24.6697L49.7776 58.6116C50.963 57.8183 52.0923 56.9476 53.1586 56.0071Z" fill="url(#paint0_linear_140_24)"/>
<path id="Vector_4" d="M45.1553 19.2H40.8887V44.8H45.1553V19.2Z" fill="url(#paint1_linear_140_24)"/>
</g>
</g>
</g>
</g>
<defs>
<linearGradient id="paint0_linear_140_24" x1="38.7558" y1="41.4222" x2="51.378" y2="57.0667" gradientUnits="userSpaceOnUse">
<stop stop-color="black"/>
<stop offset="1" stop-color="black" stop-opacity="0"/>
</linearGradient>
<linearGradient id="paint1_linear_140_24" x1="43.022" y1="19.2" x2="42.9505" y2="38" gradientUnits="userSpaceOnUse">
<stop stop-color="black"/>
<stop offset="1" stop-color="black" stop-opacity="0"/>
</linearGradient>
<clipPath id="clip0_140_24">
<rect width="64" height="64" fill="black"/>
</clipPath>
</defs>
</svg>
